<?xml version="1.0" encoding="UTF-8"?>
<svg width="72px" height="96px" viewBox="0 0 72 96" version="1.1" xmlns="http://www.w3.org/2000/svg" xmlns:xlink="http://www.w3.org/1999/xlink">
    <!-- Generator: Sketch 41.2 (35397) - http://www.bohemiancoding.com/sketch -->
    <title>article--inverse</title>
    <desc>Created with Sketch.</desc>
    <defs></defs>
    <g id="Page-1" stroke="none" stroke-width="1" fill="none" fill-rule="evenodd">
        <g id="article--inverse" fill="#FFFFFF">
            <path d="M0,0 L0,96 L72,96 L72,0 L0,0 Z M68,92 L4,92 L4,4 L68,4 L68,92 Z" id="Shape"></path>
            <rect id="Rectangle-path" x="10" y="10" width="28" height="4"></rect>
            <rect id="Rectangle-path" x="10" y="22" width="50" height="4"></rect>
            <rect id="Rectangle-path" x="10" y="32" width="48" height="4"></rect>
            <rect id="Rectangle-path" x="10" y="62" width="52" height="4"></rect>
            <rect id="Rectangle-path" x="10" y="82" width="37" height="4"></rect>
            <rect id="Rectangle-path" x="10" y="72" width="50" height="4"></rect>
            <rect id="Rectangle-path" x="42" y="42" width="18" height="4"></rect>
            <rect id="Rectangle-path" x="42" y="52" width="17" height="4"></rect>
            <path d="M36,42 L10,42 L10,56 L36,56 L36,42 Z M32,52 L14,52 L14,46 L32,46 L32,52 Z" id="Shape"></path>
        </g>
    </g>
</svg>