<svg xmlns="http://www.w3.org/2000/svg" xmlns:xlink="http://www.w3.org/1999/xlink" version="1.1" id="Layer_1" x="0px" y="0px" width="100px" height="100px" viewBox="0 0 100 100" enable-background="new 0 0 100 100" xml:space="preserve">
<path d="M14,2v96h72V2H14z M82,94H18V6h64V94z"/>
<rect x="24" y="12" width="28" height="4"/>
<rect x="24" y="24" width="50" height="4"/>
<rect x="24" y="34" width="48" height="4"/>
<rect x="24" y="64" width="52" height="4"/>
<rect x="24" y="84" width="37" height="4"/>
<rect x="24" y="74" width="50" height="4"/>
<rect x="56" y="44" width="18" height="4"/>
<rect x="56" y="54" width="17" height="4"/>
<path d="M50,44H24v14h26V44z M46,54H28v-6h18V54z"/>
</svg>