<svg xmlns="http://www.w3.org/2000/svg" xmlns:xlink="http://www.w3.org/1999/xlink" version="1.1" id="Layer_1" x="0px" y="0px" width="100px" height="100px" viewBox="0 0 100 100" enable-background="new 0 0 100 100" xml:space="preserve">
<g>
	<path d="M67.527,42.087c0.488-0.591,0.714-1.201,0.714-1.803c0-1.399-1.472-2.218-1.245-3.214c0.191-0.853,0.32-1.729,0.379-2.624   c0.025-0.375,0.038-0.753,0.038-1.133c0-4.427-1.69-8.458-4.465-11.482l-1,2.989c-1.371-1.604-2.997-3.006-4.818-4.156l0.858-2.571   c-2.279-1.136-4.853-1.777-7.572-1.777c-8.379,0-15.354,6.063-16.74,14.039c-0.186,0.988-0.256,1.963-0.256,2.958   c0,1.616,0.226,3.177,0.645,4.656c0.289,1.015-1.112,1.772-1.112,2.837c0,0.243,0.058,0.495,0.189,0.763   c0.898,1.827,4.957,3.747,10.649,3.747c1.735,0,3.38-0.183,4.854-0.513c2.16-0.483,3.837-1.257,4.866-2.122   c0.41-0.345,1.263-0.344,1.673,0.002c0.693,0.588,1.649,1.095,2.801,1.43c0.93,0.27,1.971,0.423,3.074,0.423   C64.027,44.535,66.413,43.442,67.527,42.087L67.527,42.087z M39.054,55.324l1.556,5.15l3.206-2.072L39.054,55.324L39.054,55.324z    M40.805,61.121l0.891,2.945l2.716,1.758l5.44-3.518l-5.44-3.519L40.805,61.121L40.805,61.121z M41.986,65.027l0.597,1.979   l1.232-0.797L41.986,65.027L41.986,65.027z M42.778,67.652l1.778,5.887l5.297-3.426l-5.441-3.518L42.778,67.652L42.778,67.652z    M44.917,74.729l1.614,5.34l3.322-2.147L44.917,74.729L44.917,74.729z M46.726,80.715l0.832,2.76l2.891,1.868l2.859-1.849   l0.842-2.792l-3.701-2.396L46.726,80.715L46.726,80.715z M47.849,84.432l0.655,2.168l1.35-0.873L47.849,84.432L47.849,84.432z    M48.698,87.245l1.738,5.754l1.742-5.769l-1.729-1.116L48.698,87.245L48.698,87.245z M52.374,86.585l0.644-2.132l-1.972,1.273   L52.374,86.585L52.374,86.585z M54.346,80.057l1.604-5.306l-4.904,3.171L54.346,80.057L54.346,80.057z M56.318,73.523l1.779-5.888   l-1.613-1.04l-5.438,3.519L56.318,73.523L56.318,73.523z M58.294,66.992l0.587-1.944l-1.798,1.163L58.294,66.992L58.294,66.992z    M59.17,64.088l0.902-2.982l-3.588-2.315l-5.438,3.519l5.438,3.518L59.17,64.088L59.17,64.088z M60.266,60.461l1.545-5.115   l-4.728,3.057L60.266,60.461L60.266,60.461z M50.448,54.114l5.44-3.519l-5.44-3.519l-5.439,3.519L50.448,54.114L50.448,54.114z    M44.412,58.018l5.44-3.518l-5.44-3.518l-5.44,3.518L44.412,58.018L44.412,58.018z M56.484,58.018l5.442-3.518l-5.442-3.518   L51.046,54.5L56.484,58.018L56.484,58.018z M50.448,61.922l5.44-3.52l-5.44-3.518l-5.439,3.518L50.448,61.922L50.448,61.922z    M50.448,69.729l5.44-3.519l-5.44-3.519l-5.439,3.519L50.448,69.729L50.448,69.729z M50.448,77.535l5.44-3.52l-5.44-3.516   l-5.439,3.518L50.448,77.535L50.448,77.535z M38.952,47.451c-0.862-0.169-1.691-0.382-2.469-0.638l2.155,7.13l5.178-3.348   L38.952,47.451L38.952,47.451z M48.695,47.441c-1.51,0.301-3.167,0.467-4.904,0.467c-1.101,0-2.194-0.069-3.252-0.202l3.874,2.504   L48.695,47.441L48.695,47.441z M61.256,47.125l-0.195,0.001c-1.343,0-2.627-0.185-3.797-0.525c-1.07-0.312-2.062-0.755-2.918-1.317   c-0.9,0.596-1.973,1.099-3.158,1.498l5.299,3.427L61.256,47.125L61.256,47.125z M64.417,46.719   c-0.594,0.149-1.212,0.26-1.845,0.328l-5.489,3.549l5.155,3.336L64.417,46.719L64.417,46.719z M69.962,34.615   c-0.053,0.808-0.153,1.603-0.303,2.38c0.726,0.94,1.176,2.057,1.176,3.289c0,1.301-0.503,2.478-1.306,3.451   c-0.543,0.659-1.229,1.236-2.021,1.718l-15.83,52.4c-0.463,1.526-2.021,1.526-2.481,0L33.333,45.35   c-1.143-0.736-2.017-1.622-2.519-2.639c-0.29-0.593-0.455-1.233-0.455-1.906c0-1.06,0.402-2.01,1.029-2.818   c-0.368-1.5-0.562-3.064-0.562-4.675c0-1.156,0.087-2.289,0.292-3.39c1.605-9.215,9.641-16.198,19.297-16.198   c3.008,0,5.856,0.676,8.403,1.888l4.646-13.889c0.799-2.189,6.314-0.508,5.584,1.867l-5.178,15.484   c3.777,3.571,6.134,8.629,6.134,14.238c0,0.331-0.024,0.625-0.071,0.885C69.961,34.325,69.973,34.463,69.962,34.615L69.962,34.615z   "/>
</g>
</svg>