<?xml version="1.0" encoding="utf-8"?>
<!-- Generator: Adobe Illustrator 15.1.0, SVG Export Plug-In . SVG Version: 6.00 Build 0)  -->
<!DOCTYPE svg PUBLIC "-//W3C//DTD SVG 1.1//EN" "http://www.w3.org/Graphics/SVG/1.1/DTD/svg11.dtd">
<svg version="1.1" id="Layer_1" xmlns="http://www.w3.org/2000/svg" xmlns:xlink="http://www.w3.org/1999/xlink" x="0px" y="0px"
	 width="100px" height="98.915px" viewBox="-8.86 -6.505 100 98.915" enable-background="new -8.86 -6.505 100 98.915"
	 xml:space="preserve">
<path d="M88.245,75.019c3.964,3.967,3.804,10.312-0.159,14.438c-4.123,3.964-10.474,3.964-14.438-0.16L23.673,38.051
	c-4.289-4.126-6.823-5.396-10.314-4.286c-3.491,1.27-8.412,1.27-13.014-1.746c-9.835-6.344-9.197-18.245-9.197-18.245l0.792-1.27
	c0,0,8.884,5.712,9.995,6.348c1.43,1.11,6.345,3.332,10.787-3.491c4.602-6.823,0.798-11.105-0.472-11.9
	c-1.111-0.635-9.995-6.503-9.995-6.503l0.792-1.271c0,0,10.314-5.237,19.99,0.476c0,0.319,2.381,1.746,3.332,2.54
	c6.191,5.553,6.191,11.741,5.08,16.818c-0.957,4.602,0,6.188,3.645,10.155L88.245,75.019z M84.594,78.351
	c-2.062-2.064-5.394-2.064-7.614,0c-1.902,2.062-1.902,5.553,0,7.454c2.221,2.065,5.553,2.381,7.614,0.16
	C86.656,84.062,86.656,80.412,84.594,78.351z"/>
</svg>
