<?xml version="1.0" encoding="UTF-8"?>
<svg width="101px" height="100px" viewBox="0 0 101 100" version="1.1" xmlns="http://www.w3.org/2000/svg" xmlns:xlink="http://www.w3.org/1999/xlink">
    <!-- Generator: Sketch 41.2 (35397) - http://www.bohemiancoding.com/sketch -->
    <title>wrench</title>
    <desc>Created with Sketch.</desc>
    <defs></defs>
    <g id="Page-1" stroke="none" stroke-width="1" fill="none" fill-rule="evenodd" opacity="0.152287138">
        <g id="wrench" fill="#000000">
            <path d="M97.245,82.019 C101.209,85.986 101.049,92.331 97.086,96.457 C92.963,100.421 86.612,100.421 82.648,96.297 L32.673,45.051 C28.384,40.925 25.85,39.655 22.359,40.765 C18.868,42.035 13.947,42.035 9.345,39.019 C-0.49,32.675 0.148,20.774 0.148,20.774 L0.94,19.504 C0.94,19.504 9.824,25.216 10.935,25.852 C12.365,26.962 17.28,29.184 21.722,22.361 C26.324,15.538 22.52,11.256 21.25,10.461 C20.139,9.826 11.255,3.958 11.255,3.958 L12.047,2.687 C12.047,2.687 22.361,-2.55 32.037,3.163 C32.037,3.482 34.418,4.909 35.369,5.703 C41.56,11.256 41.56,17.444 40.449,22.521 C39.492,27.123 40.449,28.709 44.094,32.676 L97.245,82.019 Z M93.594,85.351 C91.532,83.287 88.2,83.287 85.98,85.351 C84.078,87.413 84.078,90.904 85.98,92.805 C88.201,94.87 91.533,95.186 93.594,92.965 C95.656,91.062 95.656,87.412 93.594,85.351 Z" id="Shape"></path>
        </g>
    </g>
</svg>