<svg xmlns="http://www.w3.org/2000/svg" xmlns:xlink="http://www.w3.org/1999/xlink" version="1.1" id="Layer_1" x="0px" y="0px" width="100px" height="100px" viewBox="0 0 100 100" enable-background="new 0 0 100 100" xml:space="preserve">
<path fill="none" d="M45.697,70.684c-0.375,0-0.68,0.305-0.68,0.682v0.001C45.018,70.988,45.322,70.684,45.697,70.684z"/>
<path fill="none" d="M50,27.314c0.375,0,0.68,0.305,0.68,0.68v0C50.68,27.618,50.375,27.313,50,27.314  c-0.376-0.001-0.68,0.304-0.68,0.679v0C49.32,27.619,49.625,27.314,50,27.314z"/>
<path fill="none" d="M54.305,70.684c0.375,0,0.677,0.305,0.678,0.683v-0.001C54.982,70.988,54.68,70.684,54.305,70.684z"/>
<path d="M86.629,69.109c0.109-0.227,0.176-0.478,0.176-0.746V28.107c0-0.953-0.771-1.725-1.725-1.725H14.92  c-0.953,0-1.725,0.772-1.725,1.725v40.256c0,0.269,0.066,0.52,0.176,0.746H5v2.783c0,0.953,0.772,1.725,1.725,1.725h86.548  c0.953,0,1.727-0.771,1.727-1.725v-2.783H86.629z M49.32,27.994L49.32,27.994c0-0.375,0.304-0.681,0.68-0.681  c0.375,0,0.68,0.305,0.68,0.68v0v0c0,0.375-0.304,0.68-0.68,0.68S49.32,28.37,49.32,27.994L49.32,27.994z M16.142,29.708h67.715  v36.571H16.142V29.708z M54.982,71.366L54.982,71.366c0,0.376-0.303,0.681-0.678,0.681h-8.608c-0.375,0-0.68-0.305-0.68-0.68v-0.001  v-0.001c0-0.377,0.305-0.682,0.68-0.682h8.608C54.68,70.684,54.982,70.988,54.982,71.366L54.982,71.366z"/>
<path d="M35.832,46.654c-0.222,1.125-0.422,2.229-0.563,3.354h-0.04c-0.201-1.125-0.462-2.229-0.723-3.333l-0.984-3.916h-2.41  l-1.044,4.036c-0.241,0.964-0.522,2.088-0.723,3.213h-0.04c-0.161-1.125-0.361-2.209-0.562-3.233l-0.783-4.016v-0.001h-3.115  l2.852,9.819h2.872l0.984-3.454c0.262-0.924,0.462-1.827,0.643-3.052h0.04c0.202,1.205,0.382,2.088,0.623,3.052l0.924,3.454h2.872  l3.012-9.819h-2.992L35.832,46.654z"/>
<path d="M51.455,46.654c-0.221,1.125-0.422,2.229-0.563,3.354h-0.041c-0.199-1.125-0.461-2.229-0.723-3.333l-0.984-3.916h-2.41  l-1.044,4.036c-0.241,0.964-0.522,2.088-0.723,3.213h-0.04c-0.161-1.125-0.361-2.209-0.562-3.233l-0.783-4.016v-0.001h-3.115  l2.852,9.819h2.872l0.984-3.454c0.262-0.924,0.462-1.827,0.643-3.052h0.04c0.202,1.205,0.382,2.088,0.623,3.052l0.924,3.454h2.872  l3.014-9.819h-2.992L51.455,46.654z"/>
<path d="M67.079,46.654c-0.222,1.125-0.422,2.229-0.563,3.354h-0.039c-0.201-1.125-0.463-2.229-0.725-3.333l-0.982-3.916h-2.41  l-1.045,4.036c-0.24,0.964-0.521,2.088-0.723,3.213h-0.039c-0.162-1.125-0.363-2.209-0.563-3.233l-0.783-4.016v-0.001h-3.113  l2.852,9.819h2.871l0.984-3.454c0.262-0.924,0.463-1.827,0.643-3.052h0.041c0.201,1.205,0.382,2.088,0.621,3.052l0.924,3.454h2.873  l3.013-9.819h-2.992L67.079,46.654z"/>
<path d="M72.963,49.084c-1.064,0-1.809,0.784-1.809,1.867c0,1.064,0.744,1.848,1.787,1.848c1.086,0,1.809-0.783,1.809-1.848  C74.75,49.848,74.027,49.084,72.963,49.084z"/>
</svg>