<?xml version="1.0" encoding="UTF-8"?>
<svg width="90px" height="48px" viewBox="0 0 90 48" version="1.1" xmlns="http://www.w3.org/2000/svg" xmlns:xlink="http://www.w3.org/1999/xlink">
    <!-- Generator: Sketch 41.2 (35397) - http://www.bohemiancoding.com/sketch -->
    <title>website--inverse</title>
    <desc>Created with Sketch.</desc>
    <defs></defs>
    <g id="Page-1" stroke="none" stroke-width="1" fill="none" fill-rule="evenodd">
        <g id="website--inverse">
            <path d="M40.697,44.684 C40.322,44.684 40.017,44.989 40.017,45.366 L40.017,45.367 C40.018,44.988 40.322,44.684 40.697,44.684 Z" id="Shape"></path>
            <path d="M45,1.314 C45.375,1.314 45.68,1.619 45.68,1.994 L45.68,1.994 C45.68,1.618 45.375,1.313 45,1.314 C44.624,1.313 44.32,1.618 44.32,1.993 L44.32,1.993 C44.32,1.619 44.625,1.314 45,1.314 Z" id="Shape"></path>
            <path d="M49.305,44.684 C49.68,44.684 49.982,44.989 49.983,45.367 L49.983,45.366 C49.982,44.988 49.68,44.684 49.305,44.684 Z" id="Shape"></path>
            <path d="M81.629,43.109 C81.738,42.882 81.805,42.631 81.805,42.363 L81.805,2.107 C81.805,1.154 81.034,0.382 80.08,0.382 L9.92,0.382 C8.967,0.382 8.195,1.154 8.195,2.107 L8.195,42.363 C8.195,42.632 8.261,42.883 8.371,43.109 L0,43.109 L0,45.892 C0,46.845 0.772,47.617 1.725,47.617 L88.273,47.617 C89.226,47.617 90,46.846 90,45.892 L90,43.109 L81.629,43.109 Z M44.32,1.994 L44.32,1.994 C44.32,1.619 44.624,1.313 45,1.313 C45.375,1.313 45.68,1.618 45.68,1.993 L45.68,1.993 L45.68,1.993 C45.68,2.368 45.376,2.673 45,2.673 C44.624,2.673 44.32,2.37 44.32,1.994 L44.32,1.994 Z M11.142,3.708 L78.857,3.708 L78.857,40.279 L11.142,40.279 L11.142,3.708 Z M49.982,45.366 L49.982,45.366 C49.982,45.742 49.679,46.047 49.304,46.047 L40.696,46.047 C40.321,46.047 40.016,45.742 40.016,45.367 L40.016,45.366 L40.016,45.365 C40.016,44.988 40.321,44.683 40.696,44.683 L49.304,44.683 C49.68,44.684 49.982,44.988 49.982,45.366 L49.982,45.366 Z" id="Shape" fill="#FFFFFF"></path>
            <path d="M30.832,20.654 C30.61,21.779 30.41,22.883 30.269,24.008 L30.229,24.008 C30.028,22.883 29.767,21.779 29.506,20.675 L28.522,16.759 L26.112,16.759 L25.068,20.795 C24.827,21.759 24.546,22.883 24.345,24.008 L24.305,24.008 C24.144,22.883 23.944,21.799 23.743,20.775 L22.96,16.759 L22.96,16.758 L19.845,16.758 L22.697,26.577 L25.569,26.577 L26.553,23.123 C26.815,22.199 27.015,21.296 27.196,20.071 L27.236,20.071 C27.438,21.276 27.618,22.159 27.859,23.123 L28.783,26.577 L31.655,26.577 L34.667,16.758 L31.675,16.758 L30.832,20.654 Z" id="Shape" fill="#FFFFFF"></path>
            <path d="M46.455,20.654 C46.234,21.779 46.033,22.883 45.892,24.008 L45.851,24.008 C45.652,22.883 45.39,21.779 45.128,20.675 L44.144,16.759 L41.734,16.759 L40.69,20.795 C40.449,21.759 40.168,22.883 39.967,24.008 L39.927,24.008 C39.766,22.883 39.566,21.799 39.365,20.775 L38.582,16.759 L38.582,16.758 L35.467,16.758 L38.319,26.577 L41.191,26.577 L42.175,23.123 C42.437,22.199 42.637,21.296 42.818,20.071 L42.858,20.071 C43.06,21.276 43.24,22.159 43.481,23.123 L44.405,26.577 L47.277,26.577 L50.291,16.758 L47.299,16.758 L46.455,20.654 Z" id="Shape" fill="#FFFFFF"></path>
            <path d="M62.079,20.654 C61.857,21.779 61.657,22.883 61.516,24.008 L61.477,24.008 C61.276,22.883 61.014,21.779 60.752,20.675 L59.77,16.759 L57.36,16.759 L56.315,20.795 C56.075,21.759 55.794,22.883 55.592,24.008 L55.553,24.008 C55.391,22.883 55.19,21.799 54.99,20.775 L54.207,16.759 L54.207,16.758 L51.094,16.758 L53.946,26.577 L56.817,26.577 L57.801,23.123 C58.063,22.199 58.264,21.296 58.444,20.071 L58.485,20.071 C58.686,21.276 58.867,22.159 59.106,23.123 L60.03,26.577 L62.903,26.577 L65.916,16.758 L62.924,16.758 L62.079,20.654 Z" id="Shape" fill="#FFFFFF"></path>
            <path d="M67.963,23.084 C66.899,23.084 66.154,23.868 66.154,24.951 C66.154,26.015 66.898,26.799 67.941,26.799 C69.027,26.799 69.75,26.016 69.75,24.951 C69.75,23.848 69.027,23.084 67.963,23.084 Z" id="Shape" fill="#FFFFFF"></path>
        </g>
    </g>
</svg>