<?xml version="1.0" encoding="utf-8"?>
<!-- Generator: Adobe Illustrator 15.1.0, SVG Export Plug-In . SVG Version: 6.00 Build 0)  -->
<!DOCTYPE svg PUBLIC "-//W3C//DTD SVG 1.1//EN" "http://www.w3.org/Graphics/SVG/1.1/DTD/svg11.dtd">
<svg version="1.1" id="Layer_1" xmlns="http://www.w3.org/2000/svg" xmlns:xlink="http://www.w3.org/1999/xlink" x="0px" y="0px"
	 width="100.001px" height="31.785px" viewBox="0 0 100.001 31.785" enable-background="new 0 0 100.001 31.785"
	 xml:space="preserve">
<path fill="#010101" d="M99.766,2.914C93.807-0.055,81.776,0,77.87,0c-0.027,0-0.05,0.005-0.077,0.008
	C77.556,0.005,77.318,0,77.075,0c-2.99,0-5.573,0.19-7.813,0.521c-0.022,0.003-0.044,0.003-0.066,0.008
	c-0.055,0.008-0.11,0.02-0.16,0.028c-1.639,0.253-3.084,0.59-4.358,0.99c-4.432,1.236-8.658,2.867-14.676,2.867
	c-6.023,0-10.247-1.63-14.678-2.867c-1.272-0.4-2.72-0.737-4.356-0.99c-0.055-0.008-0.107-0.02-0.163-0.028
	c-0.022-0.005-0.044-0.005-0.066-0.008C28.502,0.188,25.92,0,22.927,0c-0.249,0-0.48,0.005-0.72,0.008
	C22.179,0.005,22.16,0,22.132,0C18.225,0,6.199-0.055,0.236,2.914c-0.533,0.265-0.014,6.506,0.088,6.754
	c0.168,0.417,1.804,3.341,3.68,10.429l0,0c1.258,6.594,5.369,11.688,17.506,11.688c8.156,0,14.411-2.506,18.254-7.03
	c0.014-0.017,0.027-0.028,0.041-0.044c6.073-6.893,3.424-13.939,10.192-13.939c6.771,0,4.122,7.046,10.192,13.939
	c0.017,0.016,0.033,0.027,0.044,0.044c3.841,4.524,10.098,7.03,18.254,7.03c12.14,0,16.245-5.094,17.503-11.688h0.006
	c1.87-7.088,3.515-10.013,3.681-10.429C99.776,9.419,100.296,3.179,99.766,2.914z M21.514,29.666
	c-14.303,0-15.892-7.284-15.892-15.893c0-7.107,2.075-11.654,17.305-11.654c13.905,0,19.07,3.929,19.07,9.535
	C41.997,20.792,36.741,29.666,21.514,29.666z M78.488,29.666c-15.23,0-20.483-8.873-20.483-18.011c0-5.606,5.165-9.535,19.07-9.535
	c15.23,0,17.305,4.547,17.305,11.654C94.38,22.381,92.791,29.666,78.488,29.666z"/>
</svg>
