<?xml version="1.0" encoding="UTF-8"?>
<svg width="86px" height="67px" viewBox="0 0 86 67" version="1.1" xmlns="http://www.w3.org/2000/svg" xmlns:xlink="http://www.w3.org/1999/xlink">
    <!-- Generator: Sketch 41.2 (35397) - http://www.bohemiancoding.com/sketch -->
    <title>presentation--inverse</title>
    <desc>Created with Sketch.</desc>
    <defs></defs>
    <g id="Page-1" stroke="none" stroke-width="1" fill="none" fill-rule="evenodd">
        <g id="presentation--inverse" fill="#FFFFFF">
            <path d="M83.15,0.44 L2.852,0.44 C1.092,0.44 0.034,1.498 0.034,3.258 L0.034,54.676 C0.034,56.437 1.794,57.493 3.557,57.493 L8.463,57.493 L8.463,53.706 L8.463,53.268 L5.668,53.268 C4.788,53.268 4.261,52.738 4.261,51.858 L4.261,6.076 C4.261,5.195 4.787,4.666 5.668,4.666 L80.332,4.666 C81.211,4.666 81.74,5.194 81.74,6.076 L81.74,51.859 C81.74,52.739 81.213,53.269 80.332,53.269 L44.229,53.269 L44.229,53.707 L44.229,57.494 L83.15,57.494 C84.912,57.494 85.964,56.437 85.964,54.677 L85.964,3.258 C85.965,1.498 84.912,0.44 83.15,0.44 Z" id="Shape"></path>
            <path d="M26.348,16.68 C30.843,16.68 34.486,20.325 34.486,24.82 C34.486,29.317 30.842,32.96 26.348,32.96 C21.85,32.96 18.207,29.317 18.207,24.82 C18.207,20.324 21.85,16.68 26.348,16.68 Z" id="Shape"></path>
            <path d="M34.589,35.212 L18.102,35.212 C14.587,35.212 11.738,38.056 11.738,41.56 L11.738,46.329 L11.738,53.348 L11.738,64.648 C11.738,65.746 12.679,66.643 13.83,66.643 L38.863,66.643 C40.013,66.643 40.955,65.746 40.955,64.648 L40.955,53.348 L40.955,46.329 L40.955,41.56 C40.955,38.056 38.105,35.212 34.589,35.212 Z" id="Shape"></path>
            <path d="M47.984,14.848 C47.984,13.992 48.795,13.29 49.787,13.29 L73.168,13.29 C74.158,13.29 74.971,13.992 74.971,14.848 C74.971,15.705 74.159,16.407 73.168,16.407 L49.787,16.407 C48.795,16.406 47.984,15.705 47.984,14.848 Z" id="Shape"></path>
            <path d="M47.984,30.8 C47.984,29.942 48.795,29.24 49.787,29.24 L73.168,29.24 C74.158,29.24 74.971,29.941 74.971,30.8 C74.971,31.656 74.159,32.358 73.168,32.358 L49.787,32.358 C48.795,32.357 47.984,31.656 47.984,30.8 Z" id="Shape"></path>
            <path d="M47.984,22.823 C47.984,21.966 48.795,21.265 49.787,21.265 L73.168,21.265 C74.158,21.265 74.971,21.966 74.971,22.823 C74.971,23.681 74.159,24.382 73.168,24.382 L49.787,24.382 C48.795,24.382 47.984,23.681 47.984,22.823 Z" id="Shape"></path>
            <path d="M47.982,38.773 C47.982,37.918 48.794,37.215 49.787,37.215 L64.205,37.215 C65.197,37.215 66.008,37.917 66.008,38.773 C66.008,39.63 65.197,40.332 64.205,40.332 L49.787,40.332 C48.794,40.332 47.982,39.631 47.982,38.773 Z" id="Shape"></path>
        </g>
    </g>
</svg>