<svg xmlns="http://www.w3.org/2000/svg" xmlns:xlink="http://www.w3.org/1999/xlink" version="1.1" id="Layer_1" x="0px" y="0px" width="100px" height="100px" viewBox="0 0 100 100" enable-background="new 0 0 100 100" xml:space="preserve">
<path d="M90.15,18.44H9.852c-1.76,0-2.818,1.058-2.818,2.818v51.418c0,1.761,1.76,2.817,3.523,2.817h4.906v-3.787v-0.438h-2.795  c-0.88,0-1.407-0.53-1.407-1.41V24.076c0-0.881,0.526-1.41,1.407-1.41h74.664c0.879,0,1.408,0.528,1.408,1.41v45.783  c0,0.88-0.527,1.41-1.408,1.41H51.229v0.438v3.787H90.15c1.762,0,2.814-1.057,2.814-2.817V21.258  C92.965,19.498,91.912,18.44,90.15,18.44z"/>
<path d="M33.348,34.68c4.495,0,8.138,3.645,8.138,8.14c0,4.497-3.644,8.14-8.138,8.14c-4.498,0-8.141-3.643-8.141-8.14  C25.207,38.324,28.85,34.68,33.348,34.68z"/>
<path d="M41.589,53.212H25.102c-3.515,0-6.364,2.844-6.364,6.348v4.769v7.019v11.3c0,1.098,0.941,1.995,2.092,1.995h25.033  c1.15,0,2.092-0.897,2.092-1.995v-11.3v-7.019V59.56C47.955,56.056,45.105,53.212,41.589,53.212z"/>
<path d="M54.984,32.848c0-0.856,0.811-1.558,1.803-1.558h23.381c0.99,0,1.803,0.702,1.803,1.558c0,0.857-0.812,1.559-1.803,1.559  H56.787C55.795,34.406,54.984,33.705,54.984,32.848z"/>
<path d="M54.984,48.8c0-0.858,0.811-1.56,1.803-1.56h23.381c0.99,0,1.803,0.701,1.803,1.56c0,0.856-0.812,1.558-1.803,1.558H56.787  C55.795,50.357,54.984,49.656,54.984,48.8z"/>
<path d="M54.984,40.823c0-0.857,0.811-1.558,1.803-1.558h23.381c0.99,0,1.803,0.701,1.803,1.558c0,0.858-0.812,1.559-1.803,1.559  H56.787C55.795,42.382,54.984,41.681,54.984,40.823z"/>
<path d="M54.982,56.773c0-0.855,0.812-1.558,1.805-1.558h14.418c0.992,0,1.803,0.702,1.803,1.558c0,0.857-0.811,1.559-1.803,1.559  H56.787C55.794,58.332,54.982,57.631,54.982,56.773z"/>
</svg>